<?xml version="1.0" encoding="utf-8"?>
<!-- Generator: Adobe Illustrator 28.2.0, SVG Export Plug-In . SVG Version: 6.00 Build 0)  -->
<svg version="1.1" id="Layer_1" xmlns="http://www.w3.org/2000/svg" xmlns:xlink="http://www.w3.org/1999/xlink" x="0px" y="0px"
	 viewBox="0 0 314.1 314.1" style="enable-background:new 0 0 314.1 314.1;" xml:space="preserve">
<style type="text/css">
	.st0{fill:#244447;}
</style>
<g id="Livello_2">
	<g id="Livello_10">
		<path class="st0" d="M157.1,42c42.5,42.2,55,86.1,55,86.1l-55-46.6c-27.9,23.5-49.7,66-49.7,66l43.2,36.9l8.6-11.6l-28.7-27.2
			c8.2-23.1,26.6-36.4,26.6-36.4c14.2,4.7,61.8,50.2,61.8,50.2c9-10.8,19.8-49.8,19.8-49.8c-15.7-27.8-81.6-80-81.6-80
			C98.2,68.5,39.2,156.9,39.2,156.9l0,0c4.9,12.2,12.9,22.9,23.3,31.1l2.1,1.6C82,127.4,157.1,42,157.1,42z"/>
		<path class="st0" d="M157,272.1C114.5,230,101.9,186,101.9,186l55.1,46.5c27.9-23.5,49.7-66,49.7-66l-43.2-36.9l-8.6,11.6
			l28.7,27.2c-8.2,23.1-26.5,36-26.5,36c-14.2-4.7-61.8-49.8-61.8-49.8c-8.9,10.8-19.8,49.8-19.8,49.8c15.7,27.8,81.6,80,81.6,80
			c58.8-38.8,117.9-127.2,117.9-127.2l0,0c-4.9-12.2-12.9-22.9-23.3-31.1l-2.1-1.6C232.1,186.7,157,272.1,157,272.1z"/>
	</g>
</g>
</svg>
